<svg id="Layer_1" data-name="Layer 1" xmlns="http://www.w3.org/2000/svg" viewBox="0 0 125.57 119.66"><defs><style>.cls-1{fill:#7c664a;}.cls-2{fill:#fff;}</style></defs><title>Seo Logo White Letters</title><path class="cls-1" d="M.4,59.93c.2,1.18.44,2.37.61,3.55.21,1.48.36,3,.57,4.45a36.78,36.78,0,0,0,.75,4.68C2.75,74.1,2.78,75.73,4,77a5.23,5.23,0,0,1,.67,1.75,5,5,0,0,0,.81,1.51c0-.13.13-.27.1-.38C5,78,4.44,76.13,3.86,74.27c-.5-1.59-1.12-3.15-1.51-4.77a18.06,18.06,0,0,1-.52-4c0-3,0-6,.18-9,.1-2,.41-4,.69-6,.07-.48.47-.91.61-1.39a17.06,17.06,0,0,0,.62-2.61c.18-1.21,1.14-2,1.49-3.14.24-.73.15-1.57.4-2.29.75-2.1,1.59-4.17,2.4-6.24.31-.79.62-1.57,1-2.34a.87.87,0,0,1,.6-.43,7.73,7.73,0,0,1-.36,1.51c-.5,1-1.1,2-1.6,3.06-.1.19,0,.48.08.72.19-.12.49-.19.57-.36.64-1.37,1.23-2.75,1.86-4.13a3,3,0,0,1,.93-1.18,17.12,17.12,0,0,1-.45,1.91c-.3.79-.81,1.5-1,2.3a7.68,7.68,0,0,0,0,2l.38.09,1.58-3.1c0,2-1.5,3.72-1.25,5.79,0-.78.11-1.51,1-1.83.11,0,.22-.4.16-.56a1.49,1.49,0,0,1,.87-2c.17-.09.19-.43.35-.6a2.22,2.22,0,0,1,.78-.52C12.14,40,9.5,44.47,9.23,49.63l.36.11L13,39.94l.29.08-.23,1.25.2.06,1.29-2.65.26.09L12.74,46.5l.24.07,2.22-6.34.48.43c1.92-3,3.83-6,5.76-9,0-.06.28,0,.57,0-.17.28-.27.48-.39.67-.71,1.08-1.48,2.14-2.11,3.26-.84,1.49-1.59,3-2.32,4.56-.13.27,0,.65,0,1a2.55,2.55,0,0,1-.06.73c-.29,1-.62,1.92-.93,2.87l.37.17c.28-.49.76-1,.81-1.48a10,10,0,0,1,2.05-5A10.49,10.49,0,0,0,20,37.2c.31-.6.65-1.19,1-1.78.1-.18.22-.36.31-.55A18.1,18.1,0,0,1,22.71,32c.78-1.09,1.83-2,2.71-3,.67-.79,1.25-1.66,1.87-2.49l-.3-.24-2.51,2.35-.15-.12,3-3.62.12.21a2.8,2.8,0,0,0,.91-.32c2.1-1.77,4.1-3.67,6.31-5.31a18.55,18.55,0,0,1,4.18-2c3.41-1.35,6.86-2.62,10.28-4,.91-.35,1.77-.81,2.76-1.28L51,12a1.6,1.6,0,0,1,.3-.23c.57-.23,1.57-.37,1.63-.69.24-1.12,1.18-1,1.84-1.09,1.33-.3,2.74-.29,4.07-.59,2.82-.63,5.64-.16,8.43,0a45,45,0,0,1,6.12,1.19c1.24.25,2.48.5,3.71.81a17.17,17.17,0,0,1,2.73.82c2.58,1.1,5.19,2.15,7.67,3.43a59,59,0,0,1,8.78,5.49,44,44,0,0,1,7.33,7c1.55.56,1.9,2.09,2.73,3.23a11.53,11.53,0,0,1,.76,1.38l.24-.1a15.81,15.81,0,0,0-.93-2c-1.34-2.16-2.67-4.33-4.13-6.41a19.77,19.77,0,0,0-2.61-2.81c-.34-.34-.79-.48-.66-1.12,0-.18-.5-.46-.77-.69A28.76,28.76,0,0,0,95.39,17c-1.79-1.18-3.74-2.14-5.55-3.29a18.22,18.22,0,0,1-2.24-1.89l.18-.23,1.62,1.1c.12.08.21.22.34.27,1,.39,2,.73,3,1.16.61.27,1.13.73,1.73,1,1.08.52,2.19,1,3.27,1.46.17.08.25.35.42.44a5.53,5.53,0,0,0,1.33.51,4.61,4.61,0,0,0,1.15-.07c0-.68-.1-.76-1.52-1.78a3.39,3.39,0,0,1-.54-.64h0l1.34,1-.12-.77c.57.65.61,1.68,1.77,1.9a11.53,11.53,0,0,1,2.34.92c1.05,1.17,2.13,2.28,3.1,3.47,1.39,1.69,2.79,3.37,4,5.15a63.27,63.27,0,0,1,3.81,6,52,52,0,0,1,4.51,10.89,60.09,60.09,0,0,1,2.17,10.93c.12,1.29.17,2.58.29,3.87.17,2,.42,3.92.57,5.88a13,13,0,0,1-.12,2.33,50.69,50.69,0,0,1-2,9c-.68,2.16-1.05,4.42-1.56,6.66l.47-.61.22.1-.62,1.56c-.51,1.26-1,2.53-1.55,3.77a4.84,4.84,0,0,1-1,1.17c-.36.39-1,.69-.35,1.33a.53.53,0,0,1,0,.49c-.69,1.15-1.38,2.32-2.12,3.44-1.32,2-2.6,4-4.06,5.88a49.42,49.42,0,0,1-3.55,3.7c-.11.1-.2.21-.39.41l.68.13a.87.87,0,0,1-.15.21c-1,.87-2,1.74-3,2.6-.06.06-.2.09-.22.15-.29,1-1.14,1.07-2,1.18-.5.06-.82.24-.72.82,0,.14-.18.36-.34.47a20.62,20.62,0,0,1-2,1.42c-.62.36-1.34.57-2,.88-.2.09-.49.31-.5.48,0,.91-.79.91-1.38,1.2a11.55,11.55,0,0,0-1.48,1.07,3.43,3.43,0,0,1-1.19.6,5.34,5.34,0,0,0-3.58,1.51c-.07.07-.22.07-.34.11-1.49.54-3,1.1-4.48,1.59-.84.27-1.72.41-2.58.6L75,119.65a.56.56,0,0,1-.43-.1c6.63-1.94,13.27-3.83,19-7.81l-.11-.26-1.57.66,0-.53c-.13,0-.25,0-.29.07-.55.57-1.61.6-1.78,1.59,0,.1-.36.17-.56.24a18.65,18.65,0,0,0-2,.63c-1.93.83-3.82,1.72-5.74,2.57a1.55,1.55,0,0,1-1.11,0c.93-.5,1.88-1,2.79-1.51,1.33-.76,2.62-1.57,3.95-2.31.36-.21.87-.16,1.21-.38,1.86-1.22,3.7-2.48,5.53-3.75,1-.67,1.87-1.39,2.81-2.09.4-.3.79-.62,1.18-.93l-.3-.34-2.79,1.93c4.61-4,9.27-7.91,12.6-13l-.28-.26c-.27.29-.56.56-.8.87-1.16,1.44-2.24,2.94-3.47,4.32a18.35,18.35,0,0,1-2.26,1.82,7.31,7.31,0,0,1-1.93,1.42c-.63.26-1,1-1.55,1.56a3.3,3.3,0,0,1-1.87,1l-.17-.22,1.42-1.16-.25-.31a60.12,60.12,0,0,1-15.32,9.18c3.07-1.91,6.51-3.27,9.15-5.82-3.62,1.61-7,3.78-10.78,4.92l-.11-.22,3.25-1.5-.08-.26a2.13,2.13,0,0,0-.72,0c-1.07.47-2.11,1-3.2,1.45-1.72.67-3.47,1.28-5.21,1.9-.12,0-.29,0-.48-.16L77,111l-.91-.32a3.06,3.06,0,0,0,.35-.11c.43-.27.87-.54,1.3-.84a10,10,0,0,1,1.32-1,75.47,75.47,0,0,0,10.48-6.56,6,6,0,0,0,.84-.9l-.15-.23a4.1,4.1,0,0,0-.8.34c-.49.32-.92.72-1.41,1-1.61,1-3.17,2.11-4.86,3A21.55,21.55,0,0,1,79,106.89a11.14,11.14,0,0,1-2.44.17c2.12-1.3,4.38-2.58,6.52-4s4.21-3.05,6.24-4.68c-4.68,2.53-9.08,5.51-14,7.53,1-.58,1.62-1.61,2.86-2.06a17.92,17.92,0,0,0,3.61-2.44c.93-.65,1.9-1.25,2.82-1.91a3.22,3.22,0,0,0,.6-.8l-.23-.17a4,4,0,0,0-.57.42,7,7,0,0,1-3.79,1.93,5,5,0,0,0-2.95,1.67A8.71,8.71,0,0,1,76,103.69l-.21-.22,1.07-.61-.2-.25-3,1.37-.17-.27a51.43,51.43,0,0,0,11-7.33l-.14-.23-1.31.62c.26-.34.34-.53.49-.63a32.63,32.63,0,0,0,7.48-6.61c1.89-2.18,3.49-4.59,5.19-6.91A30.42,30.42,0,0,0,100,75a35.9,35.9,0,0,0,1.33-5.41A39.38,39.38,0,0,0,102,64c.11-2.49,0-5,0-7.49a29.71,29.71,0,0,0-.41-4.21,30.62,30.62,0,0,0-1.16-4.62c-1.07-3.09-2.21-6.16-3.45-9.19a23.5,23.5,0,0,0-2.28-4.14A32.36,32.36,0,0,0,91.3,30.1a15.7,15.7,0,0,0-4.09-3.43,29.52,29.52,0,0,1-3.69-2.21,24.56,24.56,0,0,0-8-3.18A39.88,39.88,0,0,0,67.3,20a43,43,0,0,0-8.23.72,37.52,37.52,0,0,0-6.22,1.73c-1.77.62-3.45,1.48-5.15,2.26-1,.47-2,1.11-3.07,1.47a13.91,13.91,0,0,0-3.43,2l.55-1.08-.35-.17-.67,1.38-.31-.49c-.07,0-.16,0-.18.07-.73,1.9-2.58,2.77-3.94,4.1S33.75,34.66,32.44,36l-.29-.31c-.09,0-.18,0-.2.08-.74,1.18-1.51,2.35-2.18,3.57a16.39,16.39,0,0,0-.55,1.76,9.63,9.63,0,0,0-.78,1.58,7.85,7.85,0,0,1-1.35,3.06,10.22,10.22,0,0,0-.86,2.44,12.27,12.27,0,0,1-1.06,2.46L24.92,50c.23-.17.53-.29.61-.49a5.36,5.36,0,0,0,.5-1.88,8.69,8.69,0,0,1,1.18-4.18c.65-1.24.87-2.71,1.61-3.88a60.05,60.05,0,0,1,4.49-6.18,34.2,34.2,0,0,1,9.27-7.49c.24-.14.66,0,1.07,0l5.5-2.83c2.08-1.07,4.09-2.27,6.24-3.17a32.87,32.87,0,0,1,4.87-1.28c.41-.11.84-.18,1.39-.29-.22-.23-.28-.35-.34-.34-1.05.08-2.12.1-3.15.28s-1.94.53-2.91.79c-.33.08-.68.09-1,.14-.15,0-.35,0-.43.11a2.75,2.75,0,0,1-2.52.65,2.07,2.07,0,0,0-.73.24c-.57-.93.64-1.3.66-2.2l-1.62.43-3.52,1,0,0c0-.06,0-.15,0-.17,1.48-.69,2.68-1.86,4.45-2.09a10.24,10.24,0,0,0,3.13-1.26c-1.24-.52-2.08.55-3.25.53l1-.69-.07-.16-1.18.31-.15-.24c.42-.24.84-.49,1.27-.7s.91-.41,1.37-.61L52.6,14a16,16,0,0,0-1.69.42,40.44,40.44,0,0,0-4,1.54c-1.85.88-3.63,1.91-5.45,2.87-.82.43-1.65.83-2.47,1.26a13.94,13.94,0,0,0-4.11,3.61c-1.08,1.28-2.37,2.38-3.53,3.6-1,1-1.91,2.12-2.87,3.17-.53.58-1.11,1.13-1.64,1.71a8.23,8.23,0,0,0-.62.92l.19.15.79-1,.2.17-3.91,5.69.3.25a2.86,2.86,0,0,0,.5-.48q1.34-1.92,2.63-3.87c.53-.8,1-1.64,1.51-2.46a4.76,4.76,0,0,1,.53-.94c1.83-1.79,3.68-3.56,5.52-5.34.34-.34.66-.69,1.1-1.15l-.07.87.25.15,1.14-1.55c-.24,1.72-1.48,2.72-2.53,3.84l.14.29c.25-.1.66-.13.71-.29.33-.93,1.12-1.12,2.19-1.3a3.62,3.62,0,0,1-.57.87A4.66,4.66,0,0,0,35,29.38c0,.18-.3.44-.46.44-1.13,0-1.47.86-1.91,1.61-.13.21-.39.34-.54.53s-.5.69-.81,1.14c0,0-.33,0-.44.14a4,4,0,0,0-.76,1.29,15.53,15.53,0,0,1-2.42,4.22,15.54,15.54,0,0,0-.89,1.92l-.67-1.25c-.4.93-1.16,1.48-1.09,2.55a1.5,1.5,0,0,1-.89,1.41,3.38,3.38,0,0,0-1.27,1.94c-.42,1.4-.6,2.87-1,4.29A5.49,5.49,0,0,1,21,51l.21.16.5-.35-.23,2.9-.3,0-.06-1.18-.21,0-.52,1.83,1,.44.52-1.1c.54.3-.48,1.45.75,1.14,0,1.21-.63,2.35.09,3.48.12.18,0,.48,0,.72.18,2.15.34,4.3.57,6.45.05.42.4.8.52,1.22A10.2,10.2,0,0,1,24.12,68l-.33.06L22,61.15l-.36.05c.1,1,.19,1.95.3,2.93,0,.43.15.85.2,1.28a22.52,22.52,0,0,0,4.69,10.94,9.66,9.66,0,0,0,.9.91c.09.09.27.18.26.25-.09,1.33,1.45,1.72,1.76,3.06l-1-.85c-1.43.24-2-.79-2.66-1.78l-.19.15a7.49,7.49,0,0,0,.79,1.38C28.14,81,29.58,82.54,31.09,84a21.53,21.53,0,0,0,2.14,1.43,12.76,12.76,0,0,1,1.29,1.17,34.16,34.16,0,0,1-5.05-1.83,10.52,10.52,0,0,1-2.73-2.64c-1.18-1.42-2.24-2.95-3.36-4.43-.64.43-.64.43.43,1.87l-.84.14,3.48,4.5a11.35,11.35,0,0,1-3.71-4.29c-.89-1.56-2.61-2.59-2.81-4.53-.57,1.41,2,7.18,3.59,8.2l-.2-1.07c1.53,2.6,2.78,5.4,5.48,7.28l.45-.31.92,1.63c2-.22,3.48.93,5,1.83.81.47,1.66.88,2.49,1.32l.19-.26-2.11-1.68.14-.18.51.23c1.22.61,2.41,1.25,3.65,1.79.38.17.92,0,1.36.07.76.17,1.5.44,2.52.74l-.64-1.33c.89.46,1.62.86,2.35,1.23.38.2.79.63,1.08,0,.62.11,1.22.18,1.8.32a4.15,4.15,0,0,1,1.19.49,16,16,0,0,1,6.06,6.71c.29.64.3.63.84.35.11.68.26,1.35.32,2a6.42,6.42,0,0,1-2.26,5.64,1.17,1.17,0,0,0-.36.51c-.23,1.24-1.39,1.64-2.17,2.4-1,1-2.23,1.06-3.39,1.48a1,1,0,0,1-.63.07,2.44,2.44,0,0,0-2.71.33,3.55,3.55,0,0,1-1.95.47,28.67,28.67,0,0,1-4.25-.1c-2.6-.33-4.58-1.91-6.67-3.27s-4.1-2.6-6.11-4A4.55,4.55,0,0,1,25,106.94c-.78-1.43-2.19-2.19-3.32-3.24-3-2.85-6.31-5.5-9.07-8.59a56.68,56.68,0,0,1-6-8.58,61.37,61.37,0,0,1-3.54-7.24c-.61-1.39-1-2.9-1.45-4.39l.77-.1a10.83,10.83,0,0,1-1-2c-.33-1.18-.5-2.4-.74-3.6-.07-.32-.15-.63-.22-.94ZM63.52,12.12v.29c1.3.1,2.62.13,3.92.3a16.48,16.48,0,0,1,2.66.68,21.46,21.46,0,0,0,2.36.84,21.15,21.15,0,0,1,2.68.18c2.67.92,5.58,1.19,8.05,2.71,1.66,1,3.42,1.88,5.1,2.87,1.31.78,2.57,1.65,3.85,2.48.72.47,1.44.94,2.17,1.4a.57.57,0,0,0-.13-.54c-1.2-1.06-2.44-2.08-3.62-3.16a23.29,23.29,0,0,0-6.34-4.05,5.24,5.24,0,0,0-1.5-.27,4.7,4.7,0,0,1-1,0c-1.49-.59-2.92-1.34-4.44-1.83-1.82-.58-3.75-.84-5.56-1.43C69,11.68,66.26,12,63.52,12.12ZM42,17.27l.13.31,5.95-2.92A13.31,13.31,0,0,0,42,17.27ZM90,94.12l-.2-.19a20.22,20.22,0,0,0-4.24,4.19l.2.19ZM24.17,35.22,21.28,40C22.28,39.6,24.29,36.17,24.17,35.22Zm68.62-5.45c-.23-1.16-3-3.71-4-3.67ZM12.59,67.1l-.27.06L12.69,70A2.79,2.79,0,0,0,12.59,67.1Zm10.79,4.34-.43.17L24,74.05l.4-.16ZM92,96.17a2.38,2.38,0,0,0,1.91-2ZM28.28,37l1.25-2.33C28.82,35.31,28.05,35.91,28.28,37ZM12.72,47.55l-.37-.14-.57,1.92.34.1ZM89.65,97.86l.26.27,1.67-1.45-.19-.21Z"/><path class="cls-1" d="M88.49,89.62a28.55,28.55,0,0,0,1.89-2.23C92,85,93.7,82.72,95.11,80.25A28.19,28.19,0,0,0,98,73.81a40.45,40.45,0,0,0,1.44-15.63c-.33-2.77-.83-5.52-1.25-8.28a.53.53,0,0,1,.19-.44l.87,3.79c.4.4.8.61.83.86s-.3.56-.48.84l-.25-.05c.25,1.12.49,2.24.74,3.36a.84.84,0,0,1,0,.27,9.31,9.31,0,0,0,.26,2.73,12.53,12.53,0,0,1-.28,2.68c-.07,1,0,2-.09,3a13.88,13.88,0,0,1-.42,1.53c-.4,1.76-.8,3.51-1.15,5.27a17.84,17.84,0,0,1-1.8,5.2C96,80,95.5,81,94.87,82,93.48,84.16,92,86.28,90.6,88.4c-.21.32-.29.86-1,.6-.19-.07-.63.5-.95.77Z"/><path class="cls-1" d="M58.65,3.62a18.15,18.15,0,0,1,3.19-1.3c1.57-.33,3.09-1.07,4.77-.8.87.14,1.73.3,2.78.48l-.61.85.86.41c-1.33,0-2.72,0-4.11,0-1,0-1.89.19-2.84.29a.55.55,0,0,1-.18,0c-.44-.08-.68-1.09-1.4-.11-.3.41-1.39.28-2.12.39C59,3.87,58.9,3.8,58.65,3.62Z"/><path class="cls-1" d="M33,13.56c-.72.52-1.48,1-2.15,1.56s-1.11,1.19-1.71,1.74c-1.05,1-2.19,1.85-3.22,2.84S23.74,22,22.67,23.08a.76.76,0,0,1-.52.22l.44-.74-.18-.14-2.2,2.31L20,24.57c.71-.86,1.35-1.77,2.14-2.56,1.37-1.36,2.83-2.65,4.25-4l.76-.65c.51-.45,1-.94,1.53-1.37a18,18,0,0,1,2.1-1.47,18.81,18.81,0,0,1,2.2-1Z"/><path class="cls-1" d="M62.82,5.7c-.19-.25-.39-.65-.51-.63A2.53,2.53,0,0,0,61,5.55c-.45.47-.46.52-1-.33a30.5,30.5,0,0,1,7.3-.47C66,6.1,64.29,5.38,62.82,5.7Z"/><path class="cls-1" d="M20,21.46c-.26-.37.37-1.18-1-.94l1.8-2.36.24.11.2.9,1.29-1.76.1.09a11,11,0,0,1-.91,2.27A10.91,10.91,0,0,1,20,21.46Z"/><path class="cls-1" d="M52.45,8.53c1.78-1,7.29-2.12,8.37-1.91Z"/><path class="cls-1" d="M101.36,60.76l-.47-6.12.42,0c.15,2,.29,4.1.44,6.14Z"/><path class="cls-1" d="M54.4,4.39A3.23,3.23,0,0,1,55.22,4a5.83,5.83,0,0,1,1.32-.09,2.23,2.23,0,0,1,.6.16c-.12.15-.23.41-.37.43-.74.13-1.49.2-2.23.3Z"/><path class="cls-1" d="M33,13.59a2.83,2.83,0,0,1,.53-.64c1.16-.69,2.35-1.34,3.53-2l.18.3L33,13.56Z"/><path class="cls-1" d="M52.3,5,48.54,6.15l-.1-.28,3.75-1.22Z"/><path class="cls-1" d="M80.62,98.36l-2.91,1.81-.18-.25,2.88-1.87Z"/><path class="cls-1" d="M65.15.86l-2.76.41C62.86.55,64,.35,65.15.86Z"/><path class="cls-1" d="M88.83,90.39,86.1,92.65l-.21-.25,2.75-2.26Z"/><path class="cls-1" d="M25.75,23.5,23.51,26l-.22-.19,2.19-2.55Z"/><path class="cls-1" d="M16.78,29.45l1.85-2.56.22.14-1.79,2.6Z"/><path class="cls-1" d="M46.07,19.38l-2.24,1.8-.21-.27A6.55,6.55,0,0,1,46.1,19.4Z"/><path class="cls-1" d="M97.22,45.61,98,48.09l-.27.08L97,45.73Z"/><path class="cls-1" d="M84.1,94.39l2.06-1.31.2.29-2.08,1.29Z"/><path class="cls-1" d="M98.55,15.1l-2.28-.89.2-.4,2.08,1.29Z"/><path class="cls-1" d="M31.5,18.09l1.35-.92.18.27c-.48.25-.64,1-1.34.93Z"/><path class="cls-1" d="M63.52,12.12c2.74-.13,5.47-.44,8.19.44,1.81.59,3.74.85,5.56,1.43,1.52.49,3,1.24,4.44,1.83a4.7,4.7,0,0,0,1,0,5.24,5.24,0,0,1,1.5.27,23.29,23.29,0,0,1,6.34,4.05c1.18,1.08,2.42,2.1,3.62,3.16a.57.57,0,0,1,.13.54c-.73-.46-1.45-.93-2.17-1.4-1.28-.83-2.54-1.7-3.85-2.48-1.68-1-3.44-1.85-5.1-2.87-2.47-1.52-5.38-1.79-8.05-2.71a21.15,21.15,0,0,0-2.68-.18,21.46,21.46,0,0,1-2.36-.84,16.48,16.48,0,0,0-2.66-.68c-1.3-.17-2.62-.2-3.92-.3Z"/><path class="cls-1" d="M42,17.27a13.31,13.31,0,0,1,6.08-2.61l-5.95,2.92Z"/><path class="cls-1" d="M90,94.12l-4.24,4.19-.2-.19a20.22,20.22,0,0,1,4.24-4.19Z"/><path class="cls-1" d="M24.17,35.22c.12,1-1.89,4.38-2.89,4.75Z"/><path class="cls-1" d="M92.79,29.77l-4-3.67C89.83,26.06,92.56,28.61,92.79,29.77Z"/><path class="cls-1" d="M12.59,67.1a2.79,2.79,0,0,1,.1,2.91l-.37-2.85Z"/><path class="cls-1" d="M23.38,71.44l1.06,2.45-.4.16L23,71.61Z"/><path class="cls-1" d="M92,96.17l1.91-2A2.38,2.38,0,0,1,92,96.17Z"/><path class="cls-1" d="M28.28,37c-.23-1.11.54-1.71,1.25-2.33Z"/><path class="cls-1" d="M12.72,47.55l-.6,1.88-.34-.1.57-1.92Z"/><path class="cls-1" d="M89.65,97.86l1.74-1.39.19.21-1.67,1.45Z"/><path class="cls-2" d="M20.81,54.64h-.76a9,9,0,0,0-2.48-4.25,5.91,5.91,0,0,0-4.12-1.55,4.91,4.91,0,0,0-2.18.48,3.71,3.71,0,0,0-1.56,1.37,3.61,3.61,0,0,0-.58,2A3.87,3.87,0,0,0,9.36,54a5.16,5.16,0,0,0,1.08,1.59,14,14,0,0,0,2.62,2.07q2,1.23,2.4,1.56a35.67,35.67,0,0,1,4,2.87A9.88,9.88,0,0,1,21.87,65,7.93,7.93,0,0,1,22,71.76a7.52,7.52,0,0,1-2,2.56A9.27,9.27,0,0,1,17,76a12.06,12.06,0,0,1-3.83.59,18,18,0,0,1-4.93-.8l-.79-.17a4,4,0,0,0-.85-.1,1.37,1.37,0,0,0-1.32,1H4.56l.18-8.13H5.5A8.24,8.24,0,0,0,7.09,72.2a7.47,7.47,0,0,0,2.77,2.24,7.32,7.32,0,0,0,3,.69,5.32,5.32,0,0,0,3.59-1.21,3.75,3.75,0,0,0,1.41-3,3.57,3.57,0,0,0-.59-2,7.22,7.22,0,0,0-1.79-1.72c-.79-.57-2.29-1.55-4.49-3a26.83,26.83,0,0,1-3-2.19,11.31,11.31,0,0,1-1.91-2,6.69,6.69,0,0,1-1-1.93,7.27,7.27,0,0,1-.29-2.06A8.82,8.82,0,0,1,6,51.89a8.89,8.89,0,0,1,3.07-3.35,8.14,8.14,0,0,1,4.56-1.3,11.3,11.3,0,0,1,2.28.23,6.33,6.33,0,0,1,.78.17l.82.2a7.45,7.45,0,0,0,1.29.16,1.48,1.48,0,0,0,.93-.22,2.36,2.36,0,0,0,.5-.62h.6Z"/><path class="cls-2" d="M96.33,63.65a15.62,15.62,0,0,1,1-5.61,13.48,13.48,0,0,1,3-4.69A13.67,13.67,0,0,1,105,50.2a18.24,18.24,0,0,1,12.64,0,13.45,13.45,0,0,1,7.66,7.87,16.7,16.7,0,0,1,0,11.3,13.8,13.8,0,0,1-2.84,4.67,13.1,13.1,0,0,1-4.72,3.2,16.75,16.75,0,0,1-6.43,1.17,16.07,16.07,0,0,1-6.75-1.32,13.23,13.23,0,0,1-4.71-3.48,14.61,14.61,0,0,1-2.7-4.79A16.07,16.07,0,0,1,96.33,63.65Zm6.84-.37a36.9,36.9,0,0,0,.44,5.77,11.88,11.88,0,0,0,2.27,5.31,6.44,6.44,0,0,0,5.53,2.47q5.18,0,6.63-4.17a25.61,25.61,0,0,0,1.45-8.5,32.44,32.44,0,0,0-.58-6.33,10.84,10.84,0,0,0-2.39-5,6.39,6.39,0,0,0-5.11-2.1,6.54,6.54,0,0,0-5.54,2.39,11.27,11.27,0,0,0-2.26,5.09A31.08,31.08,0,0,0,103.17,63.28Z"/><path class="cls-2" d="M72.51,48.76l.19,6.11h-.47a16.87,16.87,0,0,0-.72-2.54,3,3,0,0,0-3.14-2.06H63.52V61.74h3.87a3.26,3.26,0,0,0,2.52-.87,4.28,4.28,0,0,0,.92-2.58h.47v8h-.47a3.2,3.2,0,0,0-1.19-2.42,4,4,0,0,0-2.25-.62H63.52v7.86c0,2.27,1,3.4,3.1,3.4h1.47a5.75,5.75,0,0,0,2.42-.44,3.56,3.56,0,0,0,1.55-1.53,12.53,12.53,0,0,0,1.1-3.06h.47L73.27,76H55.17v-.54c1.26,0,2.08-.32,2.45-1A5.09,5.09,0,0,0,58.17,72V52.87a5.72,5.72,0,0,0-.5-2.54c-.34-.69-1.12-1-2.33-1h-.17v-.53Z"/></svg>